<mxfile host="app.diagrams.net" agent="Mozilla/5.0 (Windows NT 10.0; Win64; x64) AppleWebKit/537.36 (KHTML, like Gecko) Chrome/134.0.0.0 Safari/537.36" version="26.1.3">
  <diagram id="prtHgNgQTEPvFCAcTncT" name="Page-1">
    <mxGraphModel dx="915" dy="791" grid="1" gridSize="10" guides="1" tooltips="1" connect="1" arrows="1" fold="1" page="1" pageScale="1" pageWidth="827" pageHeight="1169" math="0" shadow="0">
      <root>
        <mxCell id="0" />
        <mxCell id="1" parent="0" />
        <mxCell id="310F6GLuYimrmDk66UT4-6" value="" style="edgeStyle=orthogonalEdgeStyle;rounded=0;orthogonalLoop=1;jettySize=auto;html=1;" parent="1" source="310F6GLuYimrmDk66UT4-1" target="310F6GLuYimrmDk66UT4-5" edge="1">
          <mxGeometry relative="1" as="geometry" />
        </mxCell>
        <mxCell id="310F6GLuYimrmDk66UT4-1" value="开始" style="strokeWidth=2;html=1;shape=mxgraph.flowchart.start_2;whiteSpace=wrap;" parent="1" vertex="1">
          <mxGeometry x="80" y="40" width="70" height="40" as="geometry" />
        </mxCell>
        <mxCell id="310F6GLuYimrmDk66UT4-2" value="handleEvent()&lt;span style=&quot;white-space: pre;&quot;&gt;&#x9;&lt;/span&gt;事件处理&lt;div&gt;update()&lt;span style=&quot;white-space: pre;&quot;&gt;&#x9;&lt;/span&gt;更新元素&lt;/div&gt;&lt;div&gt;render()&lt;span style=&quot;white-space: pre;&quot;&gt;&#x9;&lt;/span&gt;渲染元素&lt;/div&gt;" style="rounded=1;whiteSpace=wrap;html=1;absoluteArcSize=1;arcSize=14;strokeWidth=2;" parent="1" vertex="1">
          <mxGeometry x="280" y="154" width="160" height="200" as="geometry" />
        </mxCell>
        <mxCell id="310F6GLuYimrmDk66UT4-10" value="" style="edgeStyle=orthogonalEdgeStyle;rounded=0;orthogonalLoop=1;jettySize=auto;html=1;" parent="1" source="310F6GLuYimrmDk66UT4-5" target="310F6GLuYimrmDk66UT4-9" edge="1">
          <mxGeometry relative="1" as="geometry" />
        </mxCell>
        <mxCell id="310F6GLuYimrmDk66UT4-5" value="系统资源初始化" style="whiteSpace=wrap;html=1;strokeWidth=2;" parent="1" vertex="1">
          <mxGeometry x="55" y="120" width="120" height="60" as="geometry" />
        </mxCell>
        <mxCell id="310F6GLuYimrmDk66UT4-12" value="" style="edgeStyle=orthogonalEdgeStyle;rounded=0;orthogonalLoop=1;jettySize=auto;html=1;" parent="1" source="310F6GLuYimrmDk66UT4-9" target="310F6GLuYimrmDk66UT4-11" edge="1">
          <mxGeometry relative="1" as="geometry" />
        </mxCell>
        <mxCell id="310F6GLuYimrmDk66UT4-9" value="游戏程序" style="whiteSpace=wrap;html=1;strokeWidth=2;" parent="1" vertex="1">
          <mxGeometry x="55" y="224" width="120" height="60" as="geometry" />
        </mxCell>
        <mxCell id="310F6GLuYimrmDk66UT4-14" value="" style="edgeStyle=orthogonalEdgeStyle;rounded=0;orthogonalLoop=1;jettySize=auto;html=1;" parent="1" source="310F6GLuYimrmDk66UT4-11" target="310F6GLuYimrmDk66UT4-13" edge="1">
          <mxGeometry relative="1" as="geometry" />
        </mxCell>
        <mxCell id="310F6GLuYimrmDk66UT4-11" value="资源清理" style="whiteSpace=wrap;html=1;strokeWidth=2;" parent="1" vertex="1">
          <mxGeometry x="55" y="321" width="120" height="60" as="geometry" />
        </mxCell>
        <mxCell id="310F6GLuYimrmDk66UT4-13" value="结束" style="ellipse;whiteSpace=wrap;html=1;strokeWidth=2;" parent="1" vertex="1">
          <mxGeometry x="75" y="420" width="80" height="39" as="geometry" />
        </mxCell>
        <mxCell id="310F6GLuYimrmDk66UT4-16" value="开始场景" style="whiteSpace=wrap;html=1;aspect=fixed;" parent="1" vertex="1">
          <mxGeometry x="200" y="760" width="120" height="120" as="geometry" />
        </mxCell>
        <mxCell id="310F6GLuYimrmDk66UT4-17" value="游戏主场景" style="whiteSpace=wrap;html=1;aspect=fixed;" parent="1" vertex="1">
          <mxGeometry x="400" y="760" width="120" height="120" as="geometry" />
        </mxCell>
        <mxCell id="310F6GLuYimrmDk66UT4-18" value="结束场景" style="whiteSpace=wrap;html=1;aspect=fixed;" parent="1" vertex="1">
          <mxGeometry x="600" y="760" width="120" height="120" as="geometry" />
        </mxCell>
        <mxCell id="310F6GLuYimrmDk66UT4-21" value="" style="html=1;shadow=0;dashed=0;align=center;verticalAlign=middle;shape=mxgraph.arrows2.arrow;dy=0.6;dx=40;notch=0;" parent="1" vertex="1">
          <mxGeometry x="320" y="800" width="80" height="40" as="geometry" />
        </mxCell>
        <mxCell id="310F6GLuYimrmDk66UT4-22" value="" style="html=1;shadow=0;dashed=0;align=center;verticalAlign=middle;shape=mxgraph.arrows2.arrow;dy=0.6;dx=40;notch=0;" parent="1" vertex="1">
          <mxGeometry x="520" y="760" width="80" height="40" as="geometry" />
        </mxCell>
        <mxCell id="310F6GLuYimrmDk66UT4-23" value="" style="html=1;shadow=0;dashed=0;align=center;verticalAlign=middle;shape=mxgraph.arrows2.arrow;dy=0.6;dx=40;flipH=1;notch=0;" parent="1" vertex="1">
          <mxGeometry x="520" y="835" width="80" height="40" as="geometry" />
        </mxCell>
        <mxCell id="310F6GLuYimrmDk66UT4-26" value="暂停场景" style="whiteSpace=wrap;html=1;aspect=fixed;" parent="1" vertex="1">
          <mxGeometry x="400" y="960" width="120" height="120" as="geometry" />
        </mxCell>
        <mxCell id="310F6GLuYimrmDk66UT4-27" value="" style="html=1;shadow=0;dashed=0;align=center;verticalAlign=middle;shape=mxgraph.arrows2.twoWayArrow;dy=0.65;dx=22;rotation=90;" parent="1" vertex="1">
          <mxGeometry x="421.72" y="898.29" width="76.56" height="40" as="geometry" />
        </mxCell>
        <mxCell id="310F6GLuYimrmDk66UT4-28" value="音频资源管理器" style="shape=cylinder3;whiteSpace=wrap;html=1;boundedLbl=1;backgroundOutline=1;size=15;" parent="1" vertex="1">
          <mxGeometry x="40" y="760" width="60" height="80" as="geometry" />
        </mxCell>
        <mxCell id="310F6GLuYimrmDk66UT4-29" value="字体资源管理器" style="shape=cylinder3;whiteSpace=wrap;html=1;boundedLbl=1;backgroundOutline=1;size=15;" parent="1" vertex="1">
          <mxGeometry x="40" y="880" width="60" height="80" as="geometry" />
        </mxCell>
      </root>
    </mxGraphModel>
  </diagram>
</mxfile>
